<?xml version="1.0" encoding="utf-8"?>
<svg xmlns="http://www.w3.org/2000/svg" width="7in" height="4.24in" viewBox="0 0 504 305.05"><title>illustration-humancap</title><g style="isolation:isolate"><path d="M1652.07,1420.47c-139.17,0-252,6.84-252,15.29s112.83,15.28,252,15.28,252-6.84,252-15.28S1791.25,1420.47,1652.07,1420.47Z" transform="translate(-1400.07 -1161.33)" fill="#d0d9e8"/><path d="M1652.07,1431.14c-104.76,0-189.69-3.51-189.69,4.93s84.93,30.31,189.69,30.31,189.7-21.87,189.7-30.31S1756.84,1431.14,1652.07,1431.14Z" transform="translate(-1400.07 -1161.33)" fill="#d0d9e8"/><rect x="105.94" y="2.91" width="317.5" height="174.51" fill="#edf4fc"/><rect x="105.94" width="317.5" height="15.87" fill="#7094aa"/><rect x="243.86" y="23.92" width="36.82" height="3.39" fill="#fff"/><rect x="287.3" y="23.92" width="10.45" height="3.39" fill="#fff"/><rect x="243.86" y="29.29" width="5.81" height="3.39" fill="#fff"/><rect x="272.83" y="29.29" width="24.91" height="3.39" fill="#fff"/><rect x="252.27" y="29.29" width="17.08" height="3.39" fill="#fff"/><rect x="243.86" y="34.65" width="16.78" height="3.39" fill="#fff"/><rect x="263.08" y="34.65" width="27.88" height="3.39" fill="#fff"/><rect x="243.86" y="40.01" width="30.72" height="3.39" fill="#fff"/><rect x="277.71" y="40.01" width="20.04" height="3.39" fill="#fff"/><rect x="243.86" y="45.37" width="12.6" height="3.39" fill="#fff"/><rect x="263.08" y="45.37" width="34.67" height="3.39" fill="#fff"/><rect x="267.96" y="50.74" width="15.85" height="3.39" fill="#fff"/><rect x="243.86" y="50.74" width="21.14" height="3.39" fill="#fff"/><rect x="286.95" y="50.74" width="10.8" height="3.39" fill="#fff"/><path d="M1724,1183.28v6.25a7.5,7.5,0,1,1-7.5,7.5h-6.25a13.75,13.75,0,0,0,10.55,13.37l3.2,5.54,3.2-5.54a13.75,13.75,0,0,0-3.2-27.12Z" transform="translate(-1400.07 -1161.33)" fill="#00aae7"/><path d="M1710.21,1197h6.25a7.5,7.5,0,0,1,7.5-7.5v-6.25A13.75,13.75,0,0,0,1710.21,1197Z" transform="translate(-1400.07 -1161.33)" fill="#00438c"/><path d="M1724,1183.28v6.25a7.5,7.5,0,0,1,7.5,7.5h6.25A13.76,13.76,0,0,0,1724,1183.28Z" transform="translate(-1400.07 -1161.33)" fill="#3ec6c9"/><path d="M1731.47,1197a7.49,7.49,0,0,1-3.56,6.38l-.15.09a7.44,7.44,0,0,1-3.77,1v0h0a7.34,7.34,0,0,1-3-.62l-2.36,5.79a13,13,0,0,0,2.13.7l3.2,5.54.39-.67,2.81-4.87a13.62,13.62,0,0,0,5-2.36l0,0c.17-.12.33-.25.49-.38l0,0,.45-.39,0,0,.44-.42,0,0a13.55,13.55,0,0,0,1.64-2l0,0c.1-.14.19-.29.28-.44l.1-.15.23-.41a2,2,0,0,0,.11-.2l.09-.16h0a13.73,13.73,0,0,0,1.54-6.32Z" transform="translate(-1400.07 -1161.33)" fill="#d0d9e8"/><path d="M1729.28,1191.71a7.51,7.51,0,0,1,0,10.6l4.42,4.42a13.74,13.74,0,0,0,0-19.43Z" transform="translate(-1400.07 -1161.33)" fill="#00aae7"/><path d="M1759.93,1183.28v6.25a7.5,7.5,0,1,1-7.5,7.5h-6.25a13.75,13.75,0,0,0,10.56,13.37l3.19,5.54,3.2-5.54a13.75,13.75,0,0,0-3.2-27.12Z" transform="translate(-1400.07 -1161.33)" fill="#d0d9e8"/><path d="M1746.18,1197h6.25a7.5,7.5,0,0,1,7.5-7.5v-6.25A13.75,13.75,0,0,0,1746.18,1197Z" transform="translate(-1400.07 -1161.33)" fill="#3ec6c9"/><path d="M1759.94,1183.28v6.25a7.5,7.5,0,0,1,7.5,7.5h6.25A13.76,13.76,0,0,0,1759.94,1183.28Z" transform="translate(-1400.07 -1161.33)" fill="#00438c"/><path d="M1767.45,1197a7.51,7.51,0,0,1-3.56,6.38l-.16.09a7.41,7.41,0,0,1-3.77,1v0h0a7.38,7.38,0,0,1-3-.62l-2.36,5.79a12.76,12.76,0,0,0,2.14.7l3.19,5.54.39-.67,2.81-4.87a13.62,13.62,0,0,0,5-2.36l0,0c.17-.12.33-.25.49-.38l0,0,.45-.39,0,0,.44-.42,0,0a13.55,13.55,0,0,0,1.64-2l0,0c.1-.14.19-.29.28-.44a1.3,1.3,0,0,0,.1-.15c.08-.14.16-.27.23-.41l.12-.2c0-.06.06-.11.08-.16h0a13.73,13.73,0,0,0,1.54-6.32Z" transform="translate(-1400.07 -1161.33)" fill="#00aae7"/><path d="M1765.25,1191.71a7.5,7.5,0,0,1,0,10.6l4.42,4.42a13.74,13.74,0,0,0,0-19.43Z" transform="translate(-1400.07 -1161.33)" fill="#00aae7"/><path d="M1795.9,1183.28v6.25a7.5,7.5,0,1,1-7.5,7.5h-6.25a13.75,13.75,0,0,0,10.56,13.37l3.19,5.54,3.2-5.54a13.75,13.75,0,0,0-3.2-27.12Z" transform="translate(-1400.07 -1161.33)" fill="#d0d9e8"/><path d="M1782.15,1197h6.25a7.5,7.5,0,0,1,7.5-7.5v-6.25A13.75,13.75,0,0,0,1782.15,1197Z" transform="translate(-1400.07 -1161.33)" fill="#3ec6c9"/><path d="M1795.91,1183.28v6.25a7.5,7.5,0,0,1,7.5,7.5h6.25A13.76,13.76,0,0,0,1795.91,1183.28Z" transform="translate(-1400.07 -1161.33)" fill="#00438c"/><path d="M1803.42,1197a7.51,7.51,0,0,1-3.56,6.38l-.16.09a7.39,7.39,0,0,1-3.77,1v0h0a7.38,7.38,0,0,1-3-.62l-2.36,5.79a13.06,13.06,0,0,0,2.14.7l3.19,5.54.39-.67,2.81-4.87a13.62,13.62,0,0,0,5-2.36l0,0c.17-.12.33-.25.49-.38l0,0,.45-.39,0,0,.44-.42,0,0a13.55,13.55,0,0,0,1.64-2l0,0c.1-.14.19-.29.28-.44a1.3,1.3,0,0,0,.1-.15c.08-.14.16-.27.23-.41l.12-.2c0-.06.06-.11.08-.16h0a13.73,13.73,0,0,0,1.54-6.32Z" transform="translate(-1400.07 -1161.33)" fill="#00aae7"/><path d="M1801.22,1191.71a7.5,7.5,0,0,1,0,10.6l4.42,4.42a13.74,13.74,0,0,0,0-19.43Z" transform="translate(-1400.07 -1161.33)" fill="#00aae7"/><rect x="293.02" y="64.59" width="18.34" height="3.39" fill="#d0d9e8"/><rect x="320.48" y="64.59" width="40.16" height="3.39" fill="#d0d9e8"/><rect x="365.34" y="64.59" width="8.35" height="3.39" fill="#d0d9e8"/><rect x="346.04" y="69.95" width="27.64" height="3.39" fill="#d0d9e8"/><rect x="293.02" y="69.95" width="6.61" height="3.39" fill="#d0d9e8"/><rect x="303.01" y="69.95" width="36.51" height="3.39" fill="#d0d9e8"/><rect x="293.02" y="75.31" width="21.99" height="3.39" fill="#d0d9e8"/><rect x="319.44" y="75.31" width="54.24" height="3.39" fill="#d0d9e8"/><rect x="298.07" y="154.13" width="26.16" height="3.39" fill="#9cd6e3"/><rect x="337.24" y="154.13" width="57.27" height="3.39" fill="#9cd6e3"/><rect x="401.2" y="154.13" width="11.9" height="3.39" fill="#9cd6e3"/><rect x="373.68" y="159.5" width="39.42" height="3.39" fill="#9cd6e3"/><rect x="298.07" y="159.5" width="9.42" height="3.39" fill="#9cd6e3"/><rect x="312.32" y="159.5" width="52.06" height="3.39" fill="#9cd6e3"/><rect x="298.07" y="164.86" width="31.36" height="3.39" fill="#9cd6e3"/><rect x="335.75" y="164.86" width="77.35" height="3.39" fill="#9cd6e3"/><rect x="159.9" y="84.62" width="26.16" height="3.39" fill="#9cd6e3"/><rect x="199.07" y="84.62" width="57.27" height="3.39" fill="#9cd6e3"/><rect x="263.04" y="84.62" width="11.9" height="3.39" fill="#9cd6e3"/><rect x="235.52" y="89.99" width="39.42" height="3.39" fill="#9cd6e3"/><rect x="159.9" y="89.99" width="9.42" height="3.39" fill="#9cd6e3"/><rect x="174.16" y="89.99" width="52.06" height="3.39" fill="#9cd6e3"/><rect x="290.02" y="97.3" width="14.17" height="3.39" fill="#9cd6e3"/><rect x="306.12" y="97.3" width="31.03" height="3.39" fill="#9cd6e3"/><rect x="340.77" y="97.3" width="6.45" height="3.39" fill="#9cd6e3"/><rect x="290.02" y="102.66" width="5.11" height="3.39" fill="#9cd6e3"/><rect x="297.75" y="102.66" width="28.21" height="3.39" fill="#9cd6e3"/><rect x="290.02" y="108.03" width="16.99" height="3.39" fill="#9cd6e3"/><path d="M1566.54,1221.88v9.48l-9,3a9.53,9.53,0,1,0,9-12.49Z" transform="translate(-1400.07 -1161.33)" fill="#7094aa"/><path d="M1600.51,1221.88l-.2,0v9.66H1591a9.54,9.54,0,1,0,9.53-9.68Z" transform="translate(-1400.07 -1161.33)" fill="#3ec6c9"/><path d="M1634.48,1221.88l-.2,0v9.52l-8.28-4.29a9.39,9.39,0,0,0-1.07,4.29,9.55,9.55,0,1,0,9.55-9.54Z" transform="translate(-1400.07 -1161.33)" fill="#00438c"/><path d="M1668.44,1221.88c-.24,0-.46,0-.7.07V1231l-4.75-7.43a9.53,9.53,0,1,0,5.45-1.73Z" transform="translate(-1400.07 -1161.33)" fill="#00aae7"/><rect x="113.67" y="60.06" width="27.74" height="4.61" fill="#7094aa"/><rect x="113.67" y="73" width="27.74" height="4.61" fill="#7094aa"/><rect x="113.67" y="85.95" width="27.74" height="4.61" fill="#7094aa"/><rect x="113.67" y="98.9" width="27.74" height="4.61" fill="#7094aa"/><rect x="113.67" y="111.85" width="27.74" height="4.61" fill="#7094aa"/><rect x="113.67" y="124.79" width="27.74" height="4.61" fill="#7094aa"/><rect x="113.67" y="137.74" width="27.74" height="4.61" fill="#7094aa"/><rect x="113.67" y="150.69" width="27.74" height="4.61" fill="#9cd6e3"/><rect x="113.67" y="163.64" width="27.74" height="4.61" fill="#9cd6e3"/><rect x="166.27" y="129.41" width="14.93" height="38.84" fill="#00aae7"/><rect x="193.71" y="116.46" width="14.93" height="51.79" fill="#3ec6c9"/><rect x="221.15" y="108.67" width="14.93" height="59.57" fill="#00438c"/><rect x="248.59" y="101.21" width="14.93" height="67.04" fill="#00aae7"/><path d="M1790,1273.14a27.85,27.85,0,0,0-19.49,7.95l-2.16,2.11a27.91,27.91,0,0,1-19.55,8,28,28,0,0,0-12.9,3.15,8.44,8.44,0,0,1-6,.7l-6.11-1.56-.17,0a20.79,20.79,0,0,0-21.73,8.29l-5.37,7.46h118.27v-45.26l-12.18,6.19A27.88,27.88,0,0,1,1790,1273.14Z" transform="translate(-1400.07 -1161.33)" fill="#00aae7"/><path d="M1793.46,1291.22l-8.18.09a16,16,0,0,0-11.09,4.59,16.12,16.12,0,0,1-11.26,4.59h-25.07a67.9,67.9,0,0,0-18.15,2.47l-22.48,6.22h117.56v-26.57l-14.51,7A16.13,16.13,0,0,1,1793.46,1291.22Z" transform="translate(-1400.07 -1161.33)" fill="#00438c"/><polygon points="247.98 209.25 249.63 274.74 252.5 274.74 250.84 209.16 247.98 209.25" fill="#06afea"/><polygon points="202.82 209.35 208.88 274.74 211.75 274.74 205.67 209.06 202.82 209.35" fill="#06afea"/><polygon points="193.79 174.92 199.69 255.26 254.34 255.26 248.59 174.93 193.79 174.92" fill="#00aae7"/><polygon points="221.21 274.74 224.12 274.74 234.73 209.46 231.91 208.95 221.21 274.74" fill="#06afea"/><polygon points="185.73 274.74 188.64 274.74 199.26 209.46 196.44 208.95 185.73 274.74" fill="#06afea"/><path d="M1596.23,1342.8c-1.88.38-4.66,3.1-6,5.3-4.43,7.59-5.43,22.81-3.71,35.44,1.88,13.87-.13,23.83-2,30.09h50.78c1.71-5.14,4.12-13.86,2.33-27.32-2.54-19,.61-34.08,5.73-43.51Z" transform="translate(-1400.07 -1161.33)" fill="#edf4fc"/><polygon points="192.5 181.47 244.66 181.47 245.34 174.93 193.16 174.92 192.5 181.47" fill="#7094aa"/><rect x="192.34" y="206.71" width="2.9" height="5.49" fill="#3ec6c9"/><polygon points="190.17 207.83 197.4 207.83 193.79 201.19 190.17 207.83" fill="#3ec6c9"/><rect x="203.41" y="201.88" width="2.9" height="10.32" fill="#00aae7"/><polygon points="201.25 203 208.48 203 204.86 196.36 201.25 203" fill="#00aae7"/><rect x="213.86" y="197.54" width="2.9" height="14.66" fill="#3ec6c9"/><polygon points="211.7 198.66 218.93 198.66 215.31 192.02 211.7 198.66" fill="#3ec6c9"/><rect x="226.52" y="192.66" width="2.9" height="19.54" fill="#00aae7"/><polygon points="224.36 193.78 231.59 193.78 227.97 187.15 224.36 193.78" fill="#00aae7"/><rect x="191.79" y="215.64" width="7.04" height="1.86" fill="#d2dbea"/><rect x="191.79" y="218.9" width="10.62" height="1.86" fill="#d2dbea"/><rect x="201.53" y="215.64" width="10.1" height="1.86" fill="#d2dbea"/><rect x="213.13" y="215.64" width="5.52" height="1.86" fill="#d2dbea"/><rect x="220.39" y="215.64" width="6.72" height="1.86" fill="#d2dbea"/><rect x="211.89" y="218.9" width="11.76" height="1.86" fill="#d2dbea"/><rect x="191.79" y="222.16" width="7.04" height="1.86" fill="#d2dbea"/><rect x="191.79" y="225.42" width="21.18" height="1.86" fill="#d2dbea"/><rect x="201.53" y="222.16" width="13.01" height="1.86" fill="#d2dbea"/><rect x="216.62" y="222.16" width="7.03" height="1.86" fill="#d2dbea"/><rect x="226.05" y="222.16" width="8.6" height="1.86" fill="#d2dbea"/><rect x="215.04" y="225.42" width="12.07" height="1.86" fill="#d2dbea"/><rect x="204.24" y="218.9" width="5.25" height="1.86" fill="#d2dbea"/><rect x="198.35" y="231.94" width="6.18" height="1.86" fill="#d2dbea"/><rect x="207.82" y="231.94" width="18.71" height="1.86" fill="#d2dbea"/><rect x="190.62" y="235.19" width="11.97" height="1.86" fill="#d2dbea"/><rect x="191.79" y="238.46" width="13.32" height="1.86" fill="#d2dbea"/><rect x="191.79" y="241.71" width="9.23" height="1.87" fill="#d2dbea"/><rect x="207.82" y="238.46" width="10.01" height="1.86" fill="#d2dbea"/><rect x="203.1" y="241.71" width="17.24" height="1.87" fill="#d2dbea"/><rect x="222.04" y="241.71" width="4.7" height="1.87" fill="#d2dbea"/><rect x="199.02" y="244.98" width="8.61" height="1.86" fill="#d2dbea"/><rect x="209.01" y="244.98" width="15.66" height="1.86" fill="#d2dbea"/><rect x="226.51" y="244.98" width="4.98" height="1.86" fill="#d2dbea"/><rect x="343.61" y="208.94" width="2.23" height="65.8" fill="#d0d9e8"/><rect x="372.31" y="208.94" width="2.23" height="65.8" fill="#d0d9e8"/><rect x="451.08" y="208.94" width="2.23" height="65.8" fill="#abbbdd"/><rect x="479.79" y="208.94" width="2.23" height="65.8" fill="#abbbdd"/><rect x="339.66" y="201.66" width="43.46" height="7.36" fill="#edf4fc"/><rect x="383.12" y="201.66" width="106.08" height="7.36" fill="#d0d9e8"/><rect x="453.77" y="166.32" width="15.75" height="35.34" fill="#edf4fc"/><rect x="455.2" y="169.53" width="12.89" height="5.38" fill="#d0d9e8"/><rect x="455.2" y="176.24" width="12.89" height="3.17" fill="#d0d9e8"/><rect x="429.62" y="166.32" width="24.15" height="35.34" fill="#abbbdd"/><path d="M1861.72,1350.86a3.15,3.15,0,1,0,3.14,3.15A3.15,3.15,0,0,0,1861.72,1350.86Z" transform="translate(-1400.07 -1161.33)" fill="#abbbdd"/><rect x="385.83" y="190.59" width="21.33" height="9.75" fill="#d0d9e8"/><rect x="358.86" y="147.71" width="75.67" height="44.38" rx="3.51" fill="#edf4fc"/><rect x="361.19" y="149.76" width="71.01" height="36.06" fill="#00aae7"/><path d="M1813.26,1360.27h-34.65a1.36,1.36,0,0,0,0,2.72h34.65a1.36,1.36,0,0,0,0-2.72Z" transform="translate(-1400.07 -1161.33)" fill="#fff" fill-rule="evenodd"/><rect x="361.19" y="149.76" width="8.83" height="36.09" fill="#00aae7"/><rect x="427.5" y="149.76" width="4.7" height="36.09" fill="#00aae7"/><rect x="362.15" y="155.51" width="2.79" height="2.45" fill="#fff"/><rect x="366.12" y="155.51" width="2.79" height="2.45" fill="#fff"/><rect x="362.15" y="159.08" width="2.79" height="2.45" fill="#fff"/><rect x="366.12" y="159.08" width="2.79" height="2.45" fill="#fff"/><rect x="362.15" y="162.64" width="2.79" height="2.45" fill="#fff"/><rect x="366.12" y="162.64" width="2.79" height="2.45" fill="#fff"/><rect x="362.15" y="166.21" width="2.79" height="2.45" fill="#fff"/><rect x="366.12" y="166.21" width="2.79" height="2.45" fill="#fff"/><rect x="362.15" y="169.78" width="2.79" height="2.45" fill="#fff"/><rect x="366.12" y="169.78" width="2.79" height="2.45" fill="#fff"/><rect x="362.15" y="173.34" width="2.79" height="2.45" fill="#fff"/><rect x="366.12" y="173.34" width="2.79" height="2.45" fill="#fff"/><rect x="362.15" y="178.61" width="2.79" height="5.31" fill="#fff"/><rect x="366.12" y="178.61" width="2.79" height="5.31" fill="#fff"/><rect x="428.46" y="180.66" width="2.79" height="3.26" fill="#fff"/><rect x="428.46" y="174.61" width="2.79" height="3.26" fill="#fff"/><rect x="428.46" y="168.56" width="2.79" height="3.26" fill="#fff"/><rect x="428.46" y="162.51" width="2.79" height="3.26" fill="#fff"/><rect x="428.46" y="156.46" width="2.79" height="3.27" fill="#fff"/><path d="M1780.54,1312.35h-7a1.09,1.09,0,1,0,0,2.17h7a1.09,1.09,0,0,0,0-2.17Z" transform="translate(-1400.07 -1161.33)" fill="#00438c"/><path d="M1791.12,1312.35h-6.95a1.09,1.09,0,0,0,0,2.17h6.95a1.09,1.09,0,1,0,0-2.17Z" transform="translate(-1400.07 -1161.33)" fill="#00438c"/><path d="M1801.71,1312.35h-7a1.09,1.09,0,1,0,0,2.17h7a1.09,1.09,0,0,0,0-2.17Z" transform="translate(-1400.07 -1161.33)" fill="#00438c"/><path d="M1812.29,1312.35h-7a1.09,1.09,0,0,0,0,2.17h7a1.09,1.09,0,1,0,0-2.17Z" transform="translate(-1400.07 -1161.33)" fill="#00438c"/><path d="M1822.87,1312.35h-6.94a1.09,1.09,0,1,0,0,2.17h7a1.09,1.09,0,1,0,0-2.17Z" transform="translate(-1400.07 -1161.33)" fill="#00438c"/><path d="M1807.5,1333.79v3.2a8.32,8.32,0,0,0,6.89-5.68l-3-1A5.11,5.11,0,0,1,1807.5,1333.79Z" transform="translate(-1400.07 -1161.33)" fill="#d0d9e8"/><path d="M1801,1322.63a8.25,8.25,0,0,0-2.46,8.27l3-.89a5,5,0,0,1,1.66-5.14Z" transform="translate(-1400.07 -1161.33)" fill="#00438c"/><path d="M1802.56,1332l-2.48,2a8.27,8.27,0,0,0,5.11,3l.37-3.15A5.09,5.09,0,0,1,1802.56,1332Z" transform="translate(-1400.07 -1161.33)" fill="#00438c"/><path d="M1804.8,1320.66l.64,3.09a5.13,5.13,0,0,1,5.78,3l2.92-1.21A8.29,8.29,0,0,0,1804.8,1320.66Z" transform="translate(-1400.07 -1161.33)" fill="#3ec6c9"/><path d="M1814.43,1326.34l-3,.91a5.93,5.93,0,0,1,.2,1,4.9,4.9,0,0,1-.08,1.58l3.1.64a8.45,8.45,0,0,0,.12-2.57A8.26,8.26,0,0,0,1814.43,1326.34Z" transform="translate(-1400.07 -1161.33)" fill="#d0d9e8"/><path d="M1812.45,1319.87l-.91,1.31a9.1,9.1,0,0,1-.66,15.58l.74,1.42a10.7,10.7,0,0,0,.83-18.31Z" transform="translate(-1400.07 -1161.33)" fill="#def1ff"/><path d="M1806.51,1319.66a9.06,9.06,0,0,1,5,1.52l.91-1.31a10.71,10.71,0,1,0-.83,18.31l-.74-1.42a9.11,9.11,0,1,1-4.37-17.1Z" transform="translate(-1400.07 -1161.33)" fill="#3ec6c9"/><path d="M1790.14,1345.2a5.31,5.31,0,0,0,5.29-5.3l-5.28-.08Z" transform="translate(-1400.07 -1161.33)" fill="#3ec6c9"/><path d="M1789.28,1333.76a5.26,5.26,0,0,0-3.69,1.51l3.7,3.7,5.28.08A5.29,5.29,0,0,0,1789.28,1333.76Z" transform="translate(-1400.07 -1161.33)" fill="#3ec6c9"/><path d="M1784,1339.05a5.3,5.3,0,0,0,5.3,5.29V1339l-3.7-3.7A5.25,5.25,0,0,0,1784,1339.05Z" transform="translate(-1400.07 -1161.33)" fill="#def1ff"/><path d="M1825.67,1372.12c0,.34,1.43.7,1.76.61.7-.47.43-.88,1.15-1.22a6.63,6.63,0,0,1-2.13.26C1826.06,1371.74,1825.65,1371.6,1825.67,1372.12Z" transform="translate(-1400.07 -1161.33)" fill="#fcd2c5"/><path d="M1829.13,1371.24a17.42,17.42,0,0,0-2.17,1.23c-.84.54-2.58,2-2.7,2.06a12,12,0,0,0-1.47,1.28,1.87,1.87,0,0,0-.11,1.13.58.58,0,0,0,.56.32c.09.47,1.23,0,1.22.14,0,.5.67.67,2-.48.09-.06,3.92-2.22,5.09-3A18.45,18.45,0,0,0,1829.13,1371.24Z" transform="translate(-1400.07 -1161.33)" fill="#fcd2c5"/><path d="M1847,1353.71a2.43,2.43,0,0,0-.7.4c-3.27,2.73-13.59,14.94-17.44,17.25a13.6,13.6,0,0,1,2.18,2.85c6.26-3.92,20.75-15.43,20-18.27C1850.29,1353.33,1848.27,1353.23,1847,1353.71Z" transform="translate(-1400.07 -1161.33)" fill="#fcd2c5"/><path d="M1856.21,1333.39c-1.18-.83-8.37-3-8.56-2.32-1.05,3.79-1.18,16.49-2.4,22.56-1.5,7.44,4.22,5.83,5.41,3.72C1853.77,1351.81,1858.91,1335.3,1856.21,1333.39Z" transform="translate(-1400.07 -1161.33)" fill="#fcd2c5"/><path d="M1846.34,1330.58c-2.61,3.16-1.36,19.89-2,22.87a13.85,13.85,0,0,0-.21,1.48c-1.3,1.29-3,3.1-4.77,5-3.88,4.15-8.72,9.33-11,10.66l3.12,4.37c5.51-3.45,17.55-12.85,19.91-17.22,2.53-4.54,8-20.14,6-24.19C1854.47,1327.46,1848.65,1327.78,1846.34,1330.58Z" transform="translate(-1400.07 -1161.33)" fill="#86c0f2"/><path d="M1846.89,1371.54c-5.75-.36-32.93,2.06-45.62,8.66-7.61,4-3.93,12-1.26,12.39,7.12.92,34.33,2.13,45.12-3.15C1853.42,1385.37,1850,1371.74,1846.89,1371.54Z" transform="translate(-1400.07 -1161.33)" fill="#00aae7"/><path d="M1818.32,1427.27a7.28,7.28,0,0,1,.37,2.25,4.63,4.63,0,0,0,3.38,1.11,11.23,11.23,0,0,0,.07-3.57C1821.93,1427.08,1819.82,1425.88,1818.32,1427.27Z" transform="translate(-1400.07 -1161.33)" fill="#fcd2c5"/><path d="M1798.28,1392.18c10,18,19.94,36.62,19.94,36.62a3.93,3.93,0,0,1,4.19-1.49s-5.85-19.57-11.68-36.7C1806.88,1379.32,1794.21,1384.84,1798.28,1392.18Z" transform="translate(-1400.07 -1161.33)" fill="#00aae7"/><path d="M1818.63,1428.63a3.89,3.89,0,0,1-.65.74c-1,1-5.78,3.11-5.94,4.67-.08.79,1.51,1.68,2.86,1.87a6.47,6.47,0,0,0,3.32-.11,16.79,16.79,0,0,0,3.25-3,4.11,4.11,0,0,0,.6-3C1821.28,1428,1818.63,1428.63,1818.63,1428.63Z" transform="translate(-1400.07 -1161.33)" fill="#00438c"/><path d="M1844.36,1427.64c.37,2,1,4,1,4a10.87,10.87,0,0,0,4.1-2.11s-.89-1.38-1.53-2.66C1846.39,1425.48,1844.57,1427.66,1844.36,1427.64Z" transform="translate(-1400.07 -1161.33)" fill="#fcd2c5"/><path d="M1826.81,1398.47c10,18,17.37,30.39,17.37,30.39a3.82,3.82,0,0,1,4.09-1.55s-4.9-14.24-10.73-31.37C1833.69,1384.65,1822.74,1391.14,1826.81,1398.47Z" transform="translate(-1400.07 -1161.33)" fill="#00aae7"/><path d="M1849.24,1429.37l0,0a2.73,2.73,0,0,0-2.85-.65h0a1.89,1.89,0,0,0-1.13,1.91,4.87,4.87,0,0,0,.56,2.23,14.9,14.9,0,0,0,3.25,3,6.47,6.47,0,0,0,3.32.11c1.35-.19,2.94-1.08,2.86-1.87C1855,1432.48,1850.28,1430.37,1849.24,1429.37Z" transform="translate(-1400.07 -1161.33)" fill="#00438c"/><path d="M1858.33,1364.38a179,179,0,0,1-19.18,1.93,37.72,37.72,0,0,1-11.33-1.38c0,6.22-1.2,7.17-3.87,8.84,1.89,6.83,5.7,8.64,9,9.85,16.7,6.22,30.22-3.79,30.83-3.84a151.92,151.92,0,0,0-1.08-16C1861.25,1364,1859.81,1364.19,1858.33,1364.38Z" transform="translate(-1400.07 -1161.33)" fill="#00438c"/><path d="M1846,1316.54c-.47.35-5.28,3-6.66,2.84,0,.38,1,4.41.07,6.58.39,2,6,2,7.51-1.41C1846.26,1323.58,1845.71,1318.41,1846,1316.54Z" transform="translate(-1400.07 -1161.33)" fill="#fcd2c5"/><path d="M1839.06,1307c-3.12-.21-6.14.52-6.82,3.47-.24,1.06.2,10.72,5.33,12,3.65.92,6.26-3.08,6.43-5.59,0,0,.22-3.41.22-3.44C1844.44,1310.08,1842.42,1307.16,1839.06,1307Z" transform="translate(-1400.07 -1161.33)" fill="#fcd2c5"/><path d="M1852.58,1326.05c-1.43-.34-5.68-1.5-5.68-1.5s-.83,1.17-3.42,1.72a7.16,7.16,0,0,1-4.09-.31s-5.09,2.16-6,2.7c-5.28,3.22-3.9,6.68-4.12,11.43-.11,2.21.44,25.65-4.93,33.47.18.31,2.12,5,6.55,6.12l1.09-9.62,1,10.07c10.4,2.23,18.36-1.89,26.71-3.16l.81-12.63,2.4,12.18c.81-.11,1.54-.18,2.17-.23-.11-19.28-5.57-38-5.8-38.88C1858.29,1333.69,1856.87,1327.06,1852.58,1326.05Z" transform="translate(-1400.07 -1161.33)" fill="#d0d9e9"/><path d="M1847.63,1303.17c-4.88-3.82-12.5-1.26-14.65,3.74-1.61,3.74-3.73,2.29-3.57,1.3-.49,2.48.56,4.63,5.35,4.27,1-.08-2.23.92-2.23.92s5.13,10.62,13,8a12.09,12.09,0,0,0,4.39-3.06s-2.56.42-1.21-1.67C1851.37,1312.63,1851.94,1306.55,1847.63,1303.17Z" transform="translate(-1400.07 -1161.33)" fill="#00438c"/><path d="M1792.13,1357.13c-.23.25,1.13,2.29,1.46,2.38.81.23,1.42.08,1.54-.54a11.7,11.7,0,0,1-2.19-1.6C1792.67,1357.1,1792.45,1356.72,1792.13,1357.13Z" transform="translate(-1400.07 -1161.33)" fill="#fcd2c5"/><path d="M1793.66,1358.72a40.94,40.94,0,0,0-5.34-.16c-.21.07-.93,0-1.06.58-.08.37.47.81.47.81-.55.7.89,1,.8,1.07-.46.39.17.85,1.91,1.06,1.41.17,3.53.59,5.79.71a18.49,18.49,0,0,0-.12-3.6A18.64,18.64,0,0,0,1793.66,1358.72Z" transform="translate(-1400.07 -1161.33)" fill="#fcd2c5"/><path d="M1819.27,1356a2.51,2.51,0,0,0-.8.06c-4.13,1-18.64,2.79-23.11,3.18a16.22,16.22,0,0,1,.83,3.57c6.39.34,25.3.51,25.82-2.4A3.58,3.58,0,0,0,1819.27,1356Z" transform="translate(-1400.07 -1161.33)" fill="#fcd2c5"/><path d="M1830.56,1334.5c-2.43,3.1-7.39,14.78-10.84,19.92-4.23,6.31,1.68,7,3.58,5.51,5-3.94,16.82-17.12,15-19.92C1837.58,1338.79,1831,1333.94,1830.56,1334.5Z" transform="translate(-1400.07 -1161.33)" fill="#fcd2c5"/><path d="M1830.17,1331.78c-2,3.49-11.74,23-12,23.43-1.69.7-17.45,2.68-20,3.07l.38,5.23c6.33-.22,21.47.23,25.32-2.92,4.07-3.22,16-15.34,16-20.8C1839.88,1334,1832.27,1328.08,1830.17,1331.78Z" transform="translate(-1400.07 -1161.33)" fill="#00aae7"/><polygon points="468.21 236.74 481.26 274.74 482.72 274.74 469.67 236.74 468.21 236.74" fill="#00438c"/><polygon points="446.14 236.74 459.19 274.74 460.65 274.74 447.6 236.74 446.14 236.74" fill="#00438c"/><path d="M1871.18,1341.88c-9.15,0-18,7.42-19.68,16.57l-5.73,23.8c-1,5.38-6.9,9.28-12.37,9.28h-11.92a3.25,3.25,0,1,0,0,6.5l49.16,0a4.76,4.76,0,0,0,4.68-3.85l9.35-35.78C1886.37,1349.3,1880.34,1341.88,1871.18,1341.88Z" transform="translate(-1400.07 -1161.33)" fill="#00438c"/><path d="M1871.18,1341.88c-9.15,0-18,7.42-19.68,16.57l-5.73,23.82c-1,5.38-6.9,9.31-12.37,9.31h-11.92a3.24,3.24,0,1,0,0,6.47l1.55,0a3.25,3.25,0,0,1,3-2h11.92c5.47,0,11.37-3.89,12.37-9.27L1856,1363c1.72-9.15,10.53-16.57,19.68-16.57a14.46,14.46,0,0,1,7.37,1.92A13.37,13.37,0,0,0,1871.18,1341.88Z" transform="translate(-1400.07 -1161.33)" fill="#00438c"/><polygon points="417.46 274.74 418.92 274.74 431.97 236.74 430.51 236.74 417.46 274.74" fill="#00438c"/><polygon points="439.52 274.74 440.99 274.74 454.04 236.74 452.58 236.74 439.52 274.74" fill="#00438c"/><path d="M1652.37,1270c-.33,0-.85,1.3-.8,1.62.36.74.79.53,1,1.27a7,7,0,0,1,0-2.09C1652.69,1270.42,1652.88,1270,1652.37,1270Z" transform="translate(-1400.07 -1161.33)" fill="#fcd2c5"/><path d="M1650.21,1268.34a12.59,12.59,0,0,0-1-1.57,1.88,1.88,0,0,0-1.08-.24.56.56,0,0,0-.37.5c-.48,0-.17,1.19-.29,1.17-.48-.08-.73.56.21,2,.06.08,1.68,4,2.3,5.27a17.78,17.78,0,0,0,2.87-2,16.46,16.46,0,0,0-.93-2.25C1651.45,1270.32,1650.3,1268.47,1650.21,1268.34Z" transform="translate(-1400.07 -1161.33)" fill="#fcd2c5"/><path d="M1667.85,1291.15c-7-2.35-6.15,3.37-4.26,4.77,5,3.68,21,8.57,23.18,6.18.94-1,3.21-5.62,2.56-5.89C1685.8,1294.73,1673.56,1293.07,1667.85,1291.15Z" transform="translate(-1400.07 -1161.33)" fill="#fcd2c5"/><path d="M1667.25,1292.13c-2.24-3.48-12.78-14.93-14.53-18.92a14.19,14.19,0,0,1-3,1.76c3,6.51,12.38,21.9,15.22,21.47,2.6-.38,2.95-2.32,2.63-3.58A2.47,2.47,0,0,0,1667.25,1292.13Z" transform="translate(-1400.07 -1161.33)" fill="#fcd2c5"/><path d="M1689,1294c-5.68-.23-21.37-3.5-21.81-3.59-1.09-1.36-9.17-11.06-13.12-16.45a5.1,5.1,0,0,1-2,1.88,3.49,3.49,0,0,1-2.45.59c2.68,5.56,10.27,17.89,14.16,20.58,4,2.85,19.52,7.91,23.72,7.11C1691.42,1303.41,1692.66,1294.19,1689,1294Z" transform="translate(-1400.07 -1161.33)" fill="#00438c"/><path d="M1686.78,1280.82c-1,2.56.48,8.19-1.08,12.08-.57,1.4,7.48-.85,7.39-1.45-.41-2.68-.48-6.34-1.06-8.34C1692,1283,1688.22,1278.75,1686.78,1280.82Z" transform="translate(-1400.07 -1161.33)" fill="#00438c"/><path d="M1725.35,1427.26c-.79-.64-4.12,1.3-4.19,2.16-.26,3.43-5.4,4.84-4.13,6.1.65.65,4.14.83,5.4-.07a5.47,5.47,0,0,0,2.22-3.11c.85-2.22,2-2,2.08-3.28S1725.76,1427.58,1725.35,1427.26Z" transform="translate(-1400.07 -1161.33)" fill="#00438c"/><path d="M1724.33,1425.9l-3.6,1.71a5.9,5.9,0,0,1,.43,1.81s.2,1,2.55-.05a3.06,3.06,0,0,0,1.64-2.11A3.27,3.27,0,0,1,1724.33,1425.9Z" transform="translate(-1400.07 -1161.33)" fill="#fcd2c5"/><path d="M1709.52,1375.34c.3-8.94,0-17.71.49-29.64l-18.45-1.41c1.46,13.39,5.38,31.69,5.38,31.69,1.26,12.66,17.93,34.2,24,52.22a7.69,7.69,0,0,0,3.4-2.3C1713.24,1383.07,1709.37,1379.57,1709.52,1375.34Z" transform="translate(-1400.07 -1161.33)" fill="#fcd2c5"/><path d="M1677.58,1352.89c1.43,13.53,3.26,18.78,4,27.55,2.07,24.09,2.93,49.83,2.93,49.83a4.62,4.62,0,0,0,3.59.75s5.77-34.8,4.38-49.62c-.9-9.6,3.57-11.24,4.36-34.31Z" transform="translate(-1400.07 -1161.33)" fill="#fcd2c5"/><path d="M1691.29,1285.79c.67,1.17,2.16,5.5.22,7.52.49,2.29,6.88,2.16,8.55-1.78-.76-1.09-.74-7.51-1.24-9.12C1698.3,1282.82,1692.86,1286,1691.29,1285.79Z" transform="translate(-1400.07 -1161.33)" fill="#fcd2c5"/><path d="M1708.75,1301.08c-.1-5.4-4.67-8-8.69-9.55,0,0-4.75,3.65-7.1,2.91-1.48-.47-1.45-1.13-1.45-1.13s-5-.23-5.83,2.38c-2,6.5-5.74,8.79-6.25,12.49-.59,4.22,3.86,5.79,3.8,7.39-.94,26.57-7.33,36.78-10.21,52.89,7.14,4,28.53,8.52,44.13,1.43-1.68-16-7.28-30.47-9.1-42.62C1706.6,1317.57,1708.84,1305.83,1708.75,1301.08Z" transform="translate(-1400.07 -1161.33)" fill="#3ec6c9"/><path d="M1692.39,1274.42c-2.89-.13-5.2,1.09-5.78,3.84-.2,1,.42,9.8,5.16,11,2,.52,5.75-3,5.86-5.3,0,0,.58-3.44.58-3.48A6.21,6.21,0,0,0,1692.39,1274.42Z" transform="translate(-1400.07 -1161.33)" fill="#fcd2c5"/><path d="M1691,1271.54a4.59,4.59,0,0,0-3,.49c-3.39,1.78-3.24,9.38-.62,11.77-1.11-6.51,1.47-8.67,1.47-8.67a7.4,7.4,0,0,1,6.39,1.68c3,2.67,3.09,14,2.08,17.86-.52,2,7-.4,8.29-3.38,4-9.25,1-16.31-2.17-19.53S1692.87,1267.26,1691,1271.54Z" transform="translate(-1400.07 -1161.33)" fill="#00438c"/><path d="M1697.82,1279.58a1.4,1.4,0,0,0-1.27.34c0,1.09.34,2.88.48,3.77a2.25,2.25,0,0,0,1.65-1.48C1699.17,1281.19,1698.61,1279.74,1697.82,1279.58Z" transform="translate(-1400.07 -1161.33)" fill="#fcd2c5"/><path d="M1725.78,1433.53c0,.08.29.09.33,0,.17-.28.63-4.67.63-4.67l-.66-.05S1725.72,1433,1725.78,1433.53Z" transform="translate(-1400.07 -1161.33)" fill="#00438c"/><path d="M1684.18,1429.16c-1.72,3.87-6.4,3.74-5.67,5.39.36.83,2.75,1,4.31,1s3.52-1.64,4.19-2.34c1.25-1.31,3-.6,3-2.36,0-1.14-.9-1.73-1.17-2.18C1688.36,1427.77,1684.53,1428.38,1684.18,1429.16Z" transform="translate(-1400.07 -1161.33)" fill="#00438c"/><path d="M1684.46,1427a2.93,2.93,0,0,1-.28,2.16c-.17.27-.55.95.93.85a24.36,24.36,0,0,0,3.76-1.36,9.6,9.6,0,0,1-.55-1.92Z" transform="translate(-1400.07 -1161.33)" fill="#fcd2c5"/><path d="M1688.4,1435.48c0,.08.32.08.33,0a25.24,25.24,0,0,1,1-3.73l-.67-1A40.2,40.2,0,0,0,1688.4,1435.48Z" transform="translate(-1400.07 -1161.33)" fill="#00438c"/><path d="M1668.29,1309.66a.7.7,0,0,0-.67-.51h-33.57a.7.7,0,0,0-.67.88l6.64,24a3.44,3.44,0,0,0,3.31,2.51h31.49a.7.7,0,0,0,.67-.88Z" transform="translate(-1400.07 -1161.33)" fill="#00438c"/><polygon points="247.89 159.22 249.73 165.82 251.89 165.82 250.05 159.22 247.89 159.22" fill="#00aae7"/><polygon points="250.36 157.02 252.81 165.82 254.97 165.82 252.52 157.02 250.36 157.02" fill="#00aae7"/><polygon points="252.62 155.18 255.59 165.82 257.75 165.82 254.78 155.18 252.62 155.18" fill="#00aae7"/><polygon points="255.3 153.73 258.68 165.82 260.83 165.82 257.46 153.73 255.3 153.73" fill="#00aae7"/><path d="M1674.51,1334.06h-33.89a1.25,1.25,0,0,0,0,2.5h33.89a1.25,1.25,0,0,0,0-2.5Z" transform="translate(-1400.07 -1161.33)" fill="#9cd6e3"/><path d="M1695.87,1334.06h-21.55a1.25,1.25,0,0,0,0,2.5h21.55a1.25,1.25,0,0,0,0-2.5Z" transform="translate(-1400.07 -1161.33)" fill="#9cd6e3"/><path d="M1690.9,1334.87h-1.67a.36.36,0,0,0,0,.71h1.67a.36.36,0,0,0,0-.71Z" transform="translate(-1400.07 -1161.33)" fill="#326092"/><path d="M1687.81,1334.87h-1a.36.36,0,1,0,0,.71h1a.36.36,0,0,0,0-.71Z" transform="translate(-1400.07 -1161.33)" fill="#326092"/><polygon points="237.53 147.82 254.74 172.67 256.05 172.67 238.85 147.82 237.53 147.82" fill="#326092" opacity="0.55" style="mix-blend-mode:screen"/><polygon points="240.34 147.82 257.55 172.67 262.05 172.67 244.84 147.82 240.34 147.82" fill="#326092" opacity="0.55" style="mix-blend-mode:screen"/><path d="M1666.13,1332.77c0,.36,1.69,1.86,2,1.77a4.62,4.62,0,0,0,1.72-.72c-.73.08-2.27-.87-2.88-1.25C1666.65,1332.35,1666.13,1332.2,1666.13,1332.77Z" transform="translate(-1400.07 -1161.33)" fill="#fcd2c5"/><path d="M1663,1335.15c-.62.45-.77,1.06-.5,1.44s.53.33.54.82c0,.94,1.28.28,1.24.4-.54,1.6,4.59.65,8.22-.94a19,19,0,0,0-2-3.22C1669.68,1333.86,1663.67,1334.63,1663,1335.15Z" transform="translate(-1400.07 -1161.33)" fill="#fcd2c5"/><path d="M1700.62,1298.05c-1.84,3.68-4.5,16.68-7,22.67-3,7.34,3.18,6.82,4.81,4.9,4.3-5.08,10.68-21.91,8.28-24.41C1705.71,1300.13,1701,1297.38,1700.62,1298.05Z" transform="translate(-1400.07 -1161.33)" fill="#fcd2c5"/><path d="M1695.47,1321.16a2.43,2.43,0,0,0-.8.27c-3.89,2.15-20,10.7-24.44,12.29a15,15,0,0,1,1.67,3.36c7.2-2.77,27.48-9.77,27.22-12.85C1698.89,1321.42,1696.84,1320.9,1695.47,1321.16Z" transform="translate(-1400.07 -1161.33)" fill="#fcd2c5"/><path d="M1699.83,1297.73c-1.5,1.46-6.56,22.1-6.68,22.56-1.54,1.07-15.92,8.23-22,12.09a5.46,5.46,0,0,1,1.88,2.27,3.73,3.73,0,0,1,.46,2.66c6.14-2.46,23-7.79,26.18-11.77,3.34-4.09,9.36-19.31,8.8-23.87C1708,1297.38,1702.69,1295,1699.83,1297.73Z" transform="translate(-1400.07 -1161.33)" fill="#00438c"/><path d="M1648.39,1271.48l-13.19-44.39a.37.37,0,0,0-.43-.3.38.38,0,0,0-.2.48l12.53,44.58a.69.69,0,1,0,1.3-.36Z" transform="translate(-1400.07 -1161.33)" fill="#275882"/><path d="M1751.16,1368.24c-1.59-1.53-4.15-2.14-6-.94-3.49,2.32-1.1,5.71-.44,7.57,2.77,7.91-6.25,7.41-8.46,13.48-1.17,3.23,5.6,12.16,5.35,12.91a3.61,3.61,0,0,1-2.52,2.15,4.55,4.55,0,0,0-2.81,4.11c0,5.8,5.3,8.86,8.93,9.76,3.3.81,10.43.39,13.13-2.67s3.16-6.87,2.25-10.87c-.44-1.94-2.41-5.25-2.14-7.39.46-3.64,3.08-6.73,3.77-9.07s.42-5.4-1.55-7.15C1755.75,1375.73,1752.48,1369.51,1751.16,1368.24Z" transform="translate(-1400.07 -1161.33)" fill="#3ec6c9"/><path d="M1749.18,1384.9c-.12,2.63-.17,5.26-.22,7.89s0,5.27-.07,7.91l.07,7.9c0,2.63.1,5.26.22,7.9.13-2.64.18-5.27.23-7.9l.07-7.9c0-2.64,0-5.27-.07-7.91S1749.3,1387.53,1749.18,1384.9Z" transform="translate(-1400.07 -1161.33)" fill="#fff"/><path d="M1753.8,1394.64c-.59.69-1.15,1.41-1.71,2.13a43.73,43.73,0,0,0-3.08,4.51,46.69,46.69,0,0,0,3.55-4.16c.54-.72,1.09-1.46,1.6-2.21s1-1.51,1.59-2.2A9.9,9.9,0,0,0,1753.8,1394.64Z" transform="translate(-1400.07 -1161.33)" fill="#fff"/><path d="M1748.29,1410.27c-.39-.54-.81-1-1.24-1.54a16.12,16.12,0,0,0-3-2.62c.8,1.07,1.67,2,2.53,3l1.33,1.44.67.7a1.78,1.78,0,0,1,.51.8,1.55,1.55,0,0,0-.28-1A9.76,9.76,0,0,0,1748.29,1410.27Z" transform="translate(-1400.07 -1161.33)" fill="#fff"/><path d="M1744.5,1387c.65,1.3,1.31,2.57,2,3.83a19.8,19.8,0,0,0,2.49,3.56c-.61-1.32-1.26-2.6-2-3.86A17.52,17.52,0,0,0,1744.5,1387Z" transform="translate(-1400.07 -1161.33)" fill="#fff"/><path d="M1742.33,1407.2a2,2,0,0,1-.22-1.39,8.17,8.17,0,0,1,.77-2,2.78,2.78,0,0,0,0-2.5c-.94-1.83-3.74-2.19-4.5-4.25-.36-1,.14-1.7.55-2.67a6.5,6.5,0,0,0,.83-3.42,2.79,2.79,0,0,0-2.18-2.66c-1.44-.22-2.77.82-3.77,1.93a13.14,13.14,0,0,0-2,2.34c-1.55,2.7-3,4.88-2,8.21.78,2.69,4.27,3.54,3,10-1.18,5.88,5.79,7.25,8.06,7.25,2,0,4.41-.36,5.28-2.48a5.5,5.5,0,0,0-1.38-5.93C1744,1408.86,1742.84,1408.17,1742.33,1407.2Z" transform="translate(-1400.07 -1161.33)" fill="#00aae7"/><path d="M1739.89,1408.27c-.63-1.46-1.25-2.93-1.93-4.37s-1.33-2.9-2.07-4.31c.51,1.51,1.08,3,1.66,4.48s1.19,3,1.8,4.43,1.26,2.92,1.93,4.37,1.34,2.89,2.07,4.31c-.51-1.52-1.08-3-1.65-4.49S1740.51,1409.74,1739.89,1408.27Z" transform="translate(-1400.07 -1161.33)" fill="#fff"/><path d="M1739.27,1403.93a23.68,23.68,0,0,0-.23,3.35,14,14,0,0,0,.81-3.24c.09-.54.2-1.08.33-1.6a6.29,6.29,0,0,1,.59-1.52,3.32,3.32,0,0,0-1,1.37A7.49,7.49,0,0,0,1739.27,1403.93Z" transform="translate(-1400.07 -1161.33)" fill="#fff"/><path d="M1740.6,1412.78a3.88,3.88,0,0,0-1.29-.19c-.42,0-.82,0-1.25,0a3.19,3.19,0,0,0,1.2.45,7.31,7.31,0,0,1,1.14.28,5,5,0,0,1,1.87,1.39,2.93,2.93,0,0,0-.57-1.16A2.55,2.55,0,0,0,1740.6,1412.78Z" transform="translate(-1400.07 -1161.33)" fill="#fff"/><path d="M1735.65,1401.36a10.69,10.69,0,0,0-2.55-1.1,13.12,13.12,0,0,0,2.24,1.6c.39.23.76.47,1.13.72a6,6,0,0,1,1,.84,2.68,2.68,0,0,0-.76-1.2A6.11,6.11,0,0,0,1735.65,1401.36Z" transform="translate(-1400.07 -1161.33)" fill="#0e2529"/><path d="M1736.93,1388.35a5.31,5.31,0,0,0-3.09,1.94,13.14,13.14,0,0,0-2,2.34c-1.55,2.7-3,4.88-2,8.21.76,2.64,4.12,3.52,3,9.63,1-1.26,1.06-2.78,3.29-4.94,3.81-3.69-1.81-7.47-1.81-11C1734.35,1391.72,1734.89,1389.29,1736.93,1388.35Z" transform="translate(-1400.07 -1161.33)" fill="#3ec6c9"/><path d="M330.77,251.8H360.9a2.55,2.55,0,0,1,2.55,2.55v1.5a2.56,2.56,0,0,1-2.56,2.56H330.77a2.56,2.56,0,0,1-2.56-2.56v-1.5A2.55,2.55,0,0,1,330.77,251.8Z" fill="#edf4fc"/><path d="M1733.9,1434.3a2.25,2.25,0,0,0,2.19,1.77h19.63a2.24,2.24,0,0,0,2.19-1.77l3.14-14.56h-30.28Z" transform="translate(-1400.07 -1161.33)" fill="#00aae7"/><polygon points="25.99 274.74 27.39 274.74 39.92 238.28 38.51 238.28 25.99 274.74" fill="#00438c"/><polygon points="47.16 274.74 48.56 274.74 61.09 238.28 59.68 238.28 47.16 274.74" fill="#00438c"/><path d="M1484.89,1393.35h-11.44c-5.25,0-10.9-3.75-11.87-8.91l-5.5-22.83c-1.64-8.78-10.09-15.9-18.88-15.9s-14.56,7.12-12.92,15.9l9,34.32a4.56,4.56,0,0,0,4.49,3.7l47.15-.05a3.12,3.12,0,1,0,0-6.23Z" transform="translate(-1400.07 -1161.33)" fill="#00438c"/><path d="M1437.79,1395.93l-9-34.32c-1.5-8,3.19-14.61,10.69-15.72a17.83,17.83,0,0,0-2.31-.18c-8.78,0-14.56,7.12-12.92,15.9l9,34.32a4.56,4.56,0,0,0,4.49,3.7h4.48A4.57,4.57,0,0,1,1437.79,1395.93Z" transform="translate(-1400.07 -1161.33)" fill="#00438c"/><polygon points="74.67 238.28 87.2 274.74 88.6 274.74 76.08 238.28 74.67 238.28" fill="#00438c"/><polygon points="53.5 238.28 66.03 274.74 67.43 274.74 54.91 238.28 53.5 238.28" fill="#00438c"/><path d="M1483.29,1426.72l-3-.07s-.33.14-.64.94a2.15,2.15,0,0,0-.8,1.57c0,.55,1.2,1.78,1.7,2.67a6.17,6.17,0,0,0,2.5,2c1.15.61,2.88.83,3.27.17.76-1.3-2.56-4.14-2.8-5.51C1483.35,1427.75,1483.29,1426.72,1483.29,1426.72Z" transform="translate(-1400.07 -1161.33)" fill="#00438c"/><path d="M1483.44,1426.63l-3.29-.36s-.24.52-.55,1.32a3,3,0,0,0,1.79,1.37,2.68,2.68,0,0,0,2.08-.5A6.82,6.82,0,0,1,1483.44,1426.63Z" transform="translate(-1400.07 -1161.33)" fill="#fcd2c5"/><path d="M1496.12,1388.06c-12.26-6.16-46.71-14.7-52.24-14.56,0,0-12.15,9.69,3.5,19.2,9.85,6,30.82,3.81,46.77,3.57C1499.67,1396.19,1501.34,1390.68,1496.12,1388.06Z" transform="translate(-1400.07 -1161.33)" fill="#00aae7"/><path d="M1492.51,1377.87c-5.85-2.13-14.81,0-20.33-.15-2.4-.08-12.41,2.44-6.06,7.45,9,7.15,17.2,4.34,22.05,3C1493.49,1386.71,1498,1379.87,1492.51,1377.87Z" transform="translate(-1400.07 -1161.33)" fill="#00aae7"/><path d="M1488.42,1394.49c-4.34,16.81-8.77,32.16-8.77,32.16a7.5,7.5,0,0,0,4.41,1.27s6.57-13.85,14.81-31.78C1502.23,1388.83,1491.29,1383.41,1488.42,1394.49Z" transform="translate(-1400.07 -1161.33)" fill="#00aae7"/><path d="M1479.83,1416.91l-2.61-1.58s-.36,0-1,.5a2.13,2.13,0,0,0-1.47,1c-.27.48.16,2.14.14,3.16a6.28,6.28,0,0,0,1.19,3c.7,1.11,2.09,2.16,2.75,1.78,1.31-.75-.16-4.87.32-6.17C1479.37,1417.83,1479.83,1416.91,1479.83,1416.91Z" transform="translate(-1400.07 -1161.33)" fill="#00438c"/><path d="M1476.19,1415.83a3,3,0,0,0,.87,2.07,2.65,2.65,0,0,0,2.06.61,6.36,6.36,0,0,1,.89-1.61l-2.69-2S1476.86,1415.29,1476.19,1415.83Z" transform="translate(-1400.07 -1161.33)" fill="#fcd2c5"/><path d="M1484.58,1383.81c-4.34,16.8-8.48,31.52-8.48,31.52a7.1,7.1,0,0,0,4,2.21s6.7-14.16,15-32.09C1498.39,1378.14,1487.44,1372.72,1484.58,1383.81Z" transform="translate(-1400.07 -1161.33)" fill="#00aae7"/><path d="M1505.22,1352.72a7,7,0,0,1-1.43,1.49c.68-.36.83.08,1.6-.19.26-.19.81-1.51.54-1.69S1505.42,1352.41,1505.22,1352.72Z" transform="translate(-1400.07 -1161.33)" fill="#fcd2c5"/><path d="M1509.71,1353.7a2,2,0,0,0-.84-.62,8,8,0,0,0-1.54.2c-.12,0-1.87.33-2.61.56a11.06,11.06,0,0,0-1.8.71,20.31,20.31,0,0,0,.85,3.27c1.06-.3,4.23-1.56,4.31-1.58,1.38-.2,1.55-.76,1.19-1.06-.08-.07.73-.55.43-.91A.51.51,0,0,0,1509.71,1353.7Z" transform="translate(-1400.07 -1161.33)" fill="#fcd2c5"/><path d="M1472.37,1337.78c-.4-.55-6.84,3.94-7.61,5.09-1.77,2.64,9.25,15.58,13.94,19.48,1.78,1.48,7.46,1,3.57-5.19C1479.09,1352.14,1474.62,1340.81,1472.37,1337.78Z" transform="translate(-1400.07 -1161.33)" fill="#fcd2c5"/><path d="M1464.76,1342.87c-1.18,1.76,2,9.06,6.56,14.25.7-.36,2.69-1.69,3.36-2.1a47.09,47.09,0,0,0,5.28-3.91c-3.06-4.94-6-11.19-7.59-13.33C1472,1337.23,1465.53,1341.72,1464.76,1342.87Z" transform="translate(-1400.07 -1161.33)" fill="#c4f5f7"/><path d="M1480.21,1357.76a2.59,2.59,0,0,0-.71.3c-1.09.67-2.17,2.28-.6,4.34,1.72,2.25,18.9-2.2,25.51-4.73a13.66,13.66,0,0,1-.92-3.32C1499.5,1356,1484.19,1356.83,1480.21,1357.76Z" transform="translate(-1400.07 -1161.33)" fill="#fcd2c5"/><path d="M1441,1368.17s-1.69,7.69-.93,11.19c.29,1.3,12,.22,18.29,1.11s15.15-.61,17.4-2.5c1-.84-1.42-7.24-1.42-7.24Z" transform="translate(-1400.07 -1161.33)" fill="#00aae7"/><path d="M1457.33,1324.79c.29,2.23-.45,8.41-1.24,9.55,1.77,4.12,8.46,4.22,9,1.82-1-2.61.17-7.42.19-7.87C1463.59,1328.51,1457.88,1325.21,1457.33,1324.79Z" transform="translate(-1400.07 -1161.33)" fill="#fcd2c5"/><path d="M1463.52,1316.9c-3.26.17-5.26,3-5.1,6.19,0,0,.17,3.35.17,3.35.12,2.43,4.07,6.06,6.17,5.51,5-1.32,5.55-10.55,5.33-11.58C1469.47,1317.5,1466.55,1316.74,1463.52,1316.9Z" transform="translate(-1400.07 -1161.33)" fill="#fcd2c5"/><path d="M1470.34,1335.94a58.37,58.37,0,0,0-5.53-2,3.42,3.42,0,0,1-2.44,1.28c-1.91-.18-4.75-2.73-4.75-2.73s-2.16.65-3.54,1c-4.13.91-6.77,5.18-8.33,9.24-.48,1.25-3.48,14.71-5.86,29.68-.72,4.49,33.5,7.49,35.63,3.89.87-1.48-.27-5.43-1.75-32.36C1473.63,1341.17,1473.63,1337.92,1470.34,1335.94Z" transform="translate(-1400.07 -1161.33)" fill="#9cd6e3"/><path d="M1476.89,1375.29a7.12,7.12,0,0,1-2.06-.09c.72.27.49.69,1.2,1.07.32.07,1.67-.39,1.63-.71C1477.65,1375.06,1477.26,1375.23,1476.89,1375.29Z" transform="translate(-1400.07 -1161.33)" fill="#fcd2c5"/><path d="M1479.2,1377.76c-.12-.09-1.89-1.31-2.74-1.77a18.39,18.39,0,0,0-2.17-1,17.29,17.29,0,0,0-2.11,2.74c1.18.66,5,2.44,5.09,2.5,1.37,1,2,.77,2,.29,0-.11,1.11.24,1.16-.23a.55.55,0,0,0,.51-.34,1.75,1.75,0,0,0-.19-1.07A11,11,0,0,0,1479.2,1377.76Z" transform="translate(-1400.07 -1161.33)" fill="#fcd2c5"/><path d="M1458.92,1338.42c-.08-.68-7.89.11-9.12.74-2.84,1.44.49,18.11,2.69,23.8.83,2.16,6,4.47,5.64-2.8C1457.8,1354.23,1459.41,1342.16,1458.92,1338.42Z" transform="translate(-1400.07 -1161.33)" fill="#fcd2c5"/><path d="M1458.93,1338.42c-1.59-3.06-9-3.62-10.94,1.49-.74,2-.83,8.16.6,14.89a19.78,19.78,0,0,0,10.47-1C1458.79,1348,1460.15,1340.78,1458.93,1338.42Z" transform="translate(-1400.07 -1161.33)" fill="#c4f5f7"/><path d="M1455.84,1359.59c-1.23-.37-3.15-.11-3.65,2.43-.55,2.78,14.18,12.68,20.47,16a13,13,0,0,1,1.86-2.89c-3.85-1.91-14.65-12.8-18-15.16A2.4,2.4,0,0,0,1455.84,1359.59Z" transform="translate(-1400.07 -1161.33)" fill="#fcd2c5"/><path d="M1468,1315.69s-6.78-4.36-11.27-.43c-6.76,5.93,1,13.07,1,13.07-.44-2.18,2.17-10.57,9.23-10.34,0,0,3.78,1.88,2.55,7.47C1471.93,1324.39,1473.2,1316.78,1468,1315.69Z" transform="translate(-1400.07 -1161.33)" fill="#3ec6c9"/><path d="M1456.89,1324.91c-.66,11.34,5.84,3.73,1.62,2.32.37-.86,1.14-2.6,1.47-3.69a2.63,2.63,0,0,0-1.34-.49C1457.8,1323,1456.93,1324.08,1456.89,1324.91Z" transform="translate(-1400.07 -1161.33)" fill="#fcd2c5"/><path d="M1439.81,1320c-.56,6.18-2,6.71-3.85,8.62-9,9.42,7.41,23.58,8.72,17.2.51-2.48-6.42-4.66,2.12-9.91,9.44-5.8,5.21-10.13,4.26-13.45-3.6-12.57,2.93-10.36,4.72-8,1.06,1.41,1.8.65,1.92-.68C1458.18,1308.41,1441.65,1299.47,1439.81,1320Z" transform="translate(-1400.07 -1161.33)" fill="#3ec6c9"/><path d="M1456.71,1313.37c-1.63,1-1.69,2.08-1.23,3.12a10.69,10.69,0,0,1,4-2.62,2.61,2.61,0,0,0-1.54-.78A2,2,0,0,0,1456.71,1313.37Z" transform="translate(-1400.07 -1161.33)" fill="#00438c"/><rect x="124.26" y="167.01" width="11.15" height="34.71" fill="#edf4fc"/><rect x="135.41" y="167.01" width="24.15" height="34.71" fill="#00aae7"/><rect x="93.95" y="190.59" width="21.33" height="9.75" fill="#00438c"/><rect x="66.99" y="147.71" width="75.67" height="44.38" rx="3.51" fill="#00438c"/><path d="M90.09,153.28H132.2a2.16,2.16,0,0,1,2.16,2.16v22.91a2.16,2.16,0,0,1-2.16,2.16H90.09a2.15,2.15,0,0,1-2.15-2.15V155.43A2.15,2.15,0,0,1,90.09,153.28Z" fill="#00438c"/><path d="M1521.39,1360.27h-34.65a1.36,1.36,0,0,0,0,2.72h34.65a1.36,1.36,0,0,0,0-2.72Z" transform="translate(-1400.07 -1161.33)" fill="#00438c" fill-rule="evenodd"/><rect x="23.67" y="208.94" width="2.19" height="65.8" fill="#d0d9e8"/><rect x="51.85" y="208.94" width="2.19" height="65.8" fill="#d0d9e8"/><rect x="129.19" y="208.94" width="2.19" height="65.8" fill="#abbbdd"/><rect x="157.37" y="208.94" width="2.19" height="65.8" fill="#abbbdd"/><rect x="16.73" y="201.66" width="43.46" height="7.36" fill="#edf4fc"/><rect x="60.19" y="201.66" width="106.08" height="7.36" fill="#d0d9e8"/><polygon points="400.27 86.58 397.75 82.03 386.23 82.03 398.33 60.79 392.94 60.79 378.1 86.58 400.27 86.58" fill="#00438c"/><polygon points="411.67 91.9 414.36 87.24 399.44 61.48 388.32 80.75 393.56 80.77 399.31 70.8 411.67 91.9" fill="#7094aa"/><polygon points="410.7 92.61 399.35 73.31 396.79 77.81 402.42 87.77 377.97 87.71 380.7 92.57 410.7 92.61" fill="#00aae7"/><path d="M1513.57,1215.45h119v-32.17h-119Zm110-31.67h8.26v5.82h-8.26Zm0,6.32h8.26v5.84h-8.26Zm0,6.34h8.26v5.83h-8.26Zm0,6.33h8.26v5.84h-8.26Zm0,6.34h8.26V1215h-8.26Zm-9-25.33h8.24v5.82h-8.24Zm0,6.32h8.24v5.84h-8.24Zm0,6.34h8.24v5.83h-8.24Zm0,6.33h8.24v5.84h-8.24Zm0,6.34h8.24V1215h-8.24Zm-9.12-25.33h8.4v5.82h-8.4Zm0,6.32h8.4v5.84h-8.4Zm0,6.34h8.4v5.83h-8.4Zm0,6.33h8.4v5.84h-8.4Zm0,6.34h8.4V1215h-8.4Zm-9.12-25.33h8.4v5.82h-8.4Zm0,6.32h8.4v5.84h-8.4Zm0,6.34h8.4v5.83h-8.4Zm0,6.33h8.4v5.84h-8.4Zm0,6.34h8.4V1215h-8.4Zm-9.11-25.33h8.4v5.82h-8.4Zm0,6.32h8.4v5.84h-8.4Zm0,6.34h8.4v5.83h-8.4Zm0,6.33h8.4v5.84h-8.4Zm0,6.34h8.4V1215h-8.4Zm-9.12-25.33h8.4v5.82h-8.4Zm0,6.32h8.4v5.84h-8.4Zm0,6.34h8.4v5.83h-8.4Zm0,6.33h8.4v5.84h-8.4Zm0,6.34h8.4V1215h-8.4Zm-9.12-25.33h8.4v5.82H1569Zm0,6.32h8.4v5.84H1569Zm0,6.34h8.4v5.83H1569Zm0,6.33h8.4v5.84H1569Zm0,6.34h8.4V1215H1569Zm-9.12-25.33h8.4v5.82h-8.4Zm0,6.32h8.4v5.84h-8.4Zm0,6.34h8.4v5.83h-8.4Zm0,6.33h8.4v5.84h-8.4Zm0,6.34h8.4V1215h-8.4Zm-9.12-25.33h8.4v5.82h-8.4Zm0,6.32h8.4v5.84h-8.4Zm0,6.34h8.4v5.83h-8.4Zm0,6.33h8.4v5.84h-8.4Zm0,6.34h8.4V1215h-8.4Zm-9.12-25.33h8.4v5.82h-8.4Zm0,6.32h8.4v5.84h-8.4Zm0,6.34h8.4v5.83h-8.4Zm0,6.33h8.4v5.84h-8.4Zm0,6.34h8.4V1215h-8.4Zm-9.11-25.33h8.4v5.82h-8.4Zm0,6.32h8.4v5.84h-8.4Zm0,6.34h8.4v5.83h-8.4Zm0,6.33h8.4v5.84h-8.4Zm0,6.34h8.4V1215h-8.4Zm-9.12-25.33h8.4v5.82h-8.4Zm0,6.32h8.4v5.84h-8.4Zm0,6.34h8.4v5.83h-8.4Zm0,6.33h8.4v5.84h-8.4Zm0,6.34h8.4V1215h-8.4Zm-9.12-25.33h8.4v5.82h-8.4Zm0,6.32h8.4v5.84h-8.4Zm0,6.34h8.4v5.83h-8.4Zm0,6.33h8.4v5.84h-8.4Zm0,6.34h8.4V1215h-8.4Z" transform="translate(-1400.07 -1161.33)" fill="#d3f0fe"/><polygon points="196.02 28.59 177.59 41.13 159.35 41.13 150.43 44.36 132.19 41.13 113.93 47.47 113.93 53.64 232.2 53.64 232.2 22.18 214.06 28.59 196.02 28.59" fill="#3ec6c9"/><polygon points="205.14 41.27 196.02 41.27 186.71 47.6 159.55 47.6 150.43 51.35 132.19 47.6 114.44 53.64 232 53.64 232 47.47 214.25 41.13 205.14 41.27" fill="#00aae7"/></g></svg>